<svg width="20" height="20" viewBox="0 0 20 20" fill="none" xmlns="http://www.w3.org/2000/svg">
<mask id="mask0_3:22" style="mask-type:alpha" maskUnits="userSpaceOnUse" x="0" y="0" width="20" height="20">
<rect width="20" height="20" fill="#E3E3E3"/>
</mask>
<g mask="url(#mask0_3:22)">
<path d="M17.7778 0.761905H15.5556C15.5556 -1.86667 13.0667 -4 10 -4C6.93333 -4 4.44444 -1.86667 4.44444 0.761905H2.22222C1 0.761905 0.0111111 1.61905 0.0111111 2.66667L0 14.0952C0 15.1429 1 16 2.22222 16H17.7778C19 16 20 15.1429 20 14.0952V2.66667C20 1.61905 19 0.761905 17.7778 0.761905ZM10 -2.09524C11.8444 -2.09524 13.3333 -0.819048 13.3333 0.761905H6.66667C6.66667 -0.819048 8.15556 -2.09524 10 -2.09524ZM10 7.42857C6.93333 7.42857 4.44444 5.29524 4.44444 2.66667H6.66667C6.66667 4.24762 8.15556 5.52381 10 5.52381C11.8444 5.52381 13.3333 4.24762 13.3333 2.66667H15.5556C15.5556 5.29524 13.0667 7.42857 10 7.42857Z" fill="#9B3621"/>
</g>
</svg>
